<svg width="250" height="72" viewBox="0 0 250 72" fill="none" xmlns="http://www.w3.org/2000/svg">
<mask id="mask0_1_1016" style="mask-type:luminance" maskUnits="userSpaceOnUse" x="0" y="8" width="44" height="47">
<path d="M0.21875 8.65104H44V54.4479H0.21875V8.65104Z" fill="white"/>
</mask>
<g mask="url(#mask0_1_1016)">
<path fill-rule="evenodd" clip-rule="evenodd" d="M43.9792 8.65104L35.4323 16.8854C31.8281 14.0573 27.8646 12.5104 21.6875 12.5104C10.4167 12.5104 2.1823 21.1615 2.1823 31.7135V31.8177C2.1823 37.5313 4.29168 42.474 8.00001 45.9167L0.223969 54.7708C16.6458 38.9167 29 25.8906 43.9792 8.65104ZM10.724 31.6042C10.724 25.276 15.4583 20.026 21.3802 20.026C24.9323 20.026 27.25 20.9531 29.5677 22.599C23.4896 28.4688 18.9636 33.3021 13.4063 39.6354C11.7083 37.5781 10.7292 34.8542 10.7292 31.7083V31.6042H10.724Z" fill="#0A22FF"/>
</g>
<path fill-rule="evenodd" clip-rule="evenodd" d="M21.7396 35.9792H29.7188V41.2813C27.6094 42.7708 24.9844 43.5417 22 43.5417C19.7865 43.5417 17.776 42.9792 16.0781 41.9479L10.4688 47.8177C13.5573 49.8229 17.4167 50.9583 21.7396 50.9583C28.5365 50.9583 33.7865 48.3333 37.5938 45.0885V28.9323H28.4323L21.7396 35.9792Z" fill="#0A22FF"/>
<mask id="mask1_1_1016" style="mask-type:luminance" maskUnits="userSpaceOnUse" x="193" y="26" width="18" height="22">
<path d="M193.333 26.151H210.667V48H193.333V26.151Z" fill="white"/>
</mask>
<g mask="url(#mask1_1_1016)">
<path d="M207.661 29.7188H198.286V34.7604H206.917C207.552 34.7604 208.026 34.9063 208.344 35.1875C208.656 35.474 208.812 35.849 208.812 36.3177C208.812 36.7865 208.656 37.1667 208.349 37.4583C208.042 37.7552 207.562 37.901 206.917 37.901H198.286V43.7448H207.984C208.635 43.7448 209.13 43.8958 209.464 44.1979C209.792 44.5052 209.958 44.9063 209.958 45.4115C209.958 45.8958 209.792 46.2917 209.464 46.5938C209.13 46.901 208.635 47.0521 207.984 47.0521H196.677C195.771 47.0521 195.12 46.849 194.724 46.4479C194.323 46.0469 194.125 45.3958 194.125 44.5V29.0625C194.125 28.4635 194.214 27.974 194.391 27.5938C194.573 27.2188 194.849 26.9427 195.229 26.7708C195.604 26.599 196.089 26.5104 196.677 26.5104H207.661C208.323 26.5104 208.818 26.6563 209.141 26.9531C209.464 27.2448 209.625 27.6302 209.625 28.1094C209.625 28.5938 209.464 28.9844 209.141 29.276C208.818 29.5729 208.323 29.7188 207.661 29.7188Z" fill="#002EFF"/>
</g>
<mask id="mask2_1_1016" style="mask-type:luminance" maskUnits="userSpaceOnUse" x="212" y="26" width="22" height="22">
<path d="M212 26.151H233.333V48H212V26.151Z" fill="white"/>
</mask>
<g mask="url(#mask2_1_1016)">
<path d="M222.302 26.1615C224.432 26.1615 226.26 26.5938 227.786 27.4583C229.318 28.3177 230.474 29.5469 231.255 31.1406C232.042 32.7344 232.432 34.6042 232.432 36.75C232.432 38.3385 232.219 39.7813 231.786 41.0833C231.359 42.3802 230.714 43.5052 229.854 44.4583C228.995 45.4115 227.943 46.1406 226.688 46.6458C225.438 47.1458 224.005 47.401 222.385 47.401C220.781 47.401 219.344 47.1406 218.073 46.625C216.802 46.1042 215.74 45.375 214.891 44.4323C214.042 43.4844 213.401 42.3542 212.964 41.026C212.531 39.6979 212.312 38.2656 212.312 36.724C212.312 35.1458 212.542 33.6979 212.995 32.3802C213.448 31.0625 214.104 29.9427 214.964 29.0156C215.823 28.0938 216.865 27.3854 218.099 26.8958C219.333 26.4063 220.734 26.1615 222.302 26.1615ZM228.214 36.724C228.214 35.2188 227.974 33.9167 227.49 32.8125C227 31.7135 226.307 30.8802 225.406 30.3125C224.505 29.75 223.469 29.4688 222.302 29.4688C221.474 29.4688 220.703 29.625 220 29.9375C219.292 30.25 218.688 30.7031 218.177 31.3021C217.667 31.901 217.266 32.6615 216.974 33.5938C216.677 34.5208 216.531 35.5677 216.531 36.724C216.531 37.8906 216.677 38.9479 216.974 39.8906C217.266 40.8333 217.682 41.6146 218.219 42.2396C218.755 42.8594 219.375 43.3229 220.068 43.6302C220.766 43.9375 221.526 44.0938 222.359 44.0938C223.422 44.0938 224.401 43.8281 225.297 43.2969C226.188 42.7604 226.896 41.9427 227.422 40.8281C227.953 39.7188 228.214 38.349 228.214 36.724Z" fill="#002EFF"/>
</g>
<path d="M240.286 51.1563L238.536 52.724L235.854 49.7188L237.604 48.151L240.286 51.1563Z" fill="#FF671F"/>
<path d="M238.484 53.651L234.922 49.6667L237.656 47.224L241.219 51.2083L238.484 53.651ZM236.781 49.7708L238.589 51.7969L239.359 51.1042L237.552 49.0781L236.781 49.7708Z" fill="#FF671F"/>
<path d="M229.505 52.7552C226.078 52.7552 222.802 51.2917 220.521 48.7344C218.38 46.3333 217.297 43.2448 217.479 40.0365C217.661 36.8229 219.083 33.875 221.484 31.7344C223.693 29.7604 226.536 28.6771 229.495 28.6771C232.927 28.6771 236.198 30.1406 238.484 32.6979C240.625 35.0938 241.703 38.1823 241.521 41.3958C241.339 44.6042 239.917 47.5521 237.521 49.6979C235.313 51.6667 232.464 52.7552 229.505 52.7552ZM229.495 30.8646C227.078 30.8646 224.75 31.7552 222.943 33.3698C220.979 35.1198 219.818 37.5313 219.667 40.1615C219.521 42.7865 220.401 45.3125 222.156 47.276C224.021 49.3646 226.698 50.5625 229.505 50.5625C231.927 50.5625 234.255 49.6771 236.063 48.0625C240.115 44.4427 240.464 38.2083 236.849 34.1563C234.979 32.0625 232.302 30.8646 229.495 30.8646Z" fill="#FF671F"/>
<mask id="mask3_1_1016" style="mask-type:luminance" maskUnits="userSpaceOnUse" x="237" y="50" width="12" height="12">
<path d="M237.333 50.6667H248.599V61.9896H237.333V50.6667Z" fill="white"/>
</mask>
<g mask="url(#mask3_1_1016)">
<path d="M242.234 52.0052L247.37 57.7552C248.266 58.7604 248.38 60.125 247.62 60.8021L247.422 60.9844C246.662 61.6615 245.318 61.3958 244.417 60.3906L239.281 54.6406C238.385 53.6302 238.271 52.2656 239.031 51.5885L239.234 51.4115C239.99 50.7344 241.333 51 242.234 52.0052Z" fill="#FF671F"/>
</g>
<mask id="mask4_1_1016" style="mask-type:luminance" maskUnits="userSpaceOnUse" x="237" y="49" width="12" height="13">
<path d="M237.333 49.3333H248.599V61.9896H237.333V49.3333Z" fill="white"/>
</mask>
<g mask="url(#mask4_1_1016)">
<path d="M246.375 62.0156C245.505 62.0156 244.594 61.5729 243.927 60.8281L238.792 55.0781C238.266 54.4844 237.938 53.7604 237.88 53.0469C237.818 52.2708 238.078 51.5625 238.594 51.099L238.797 50.9219C239.193 50.5677 239.703 50.3802 240.276 50.3802C241.146 50.3802 242.057 50.8229 242.724 51.5677L247.859 57.3177C248.385 57.9115 248.714 58.6302 248.771 59.349C248.833 60.125 248.573 60.8333 248.057 61.2969L247.859 61.474C247.458 61.8281 246.948 62.0156 246.375 62.0156ZM240.276 51.6927C240.104 51.6927 239.865 51.7292 239.672 51.901L239.469 52.0781C239.188 52.3333 239.172 52.724 239.193 52.9375C239.224 53.3646 239.438 53.8281 239.771 54.2031L244.906 59.9531C245.323 60.4167 245.885 60.7031 246.375 60.7031C246.547 60.7031 246.792 60.6667 246.984 60.4948L247.182 60.3125C247.464 60.0625 247.479 59.6667 247.464 59.4583C247.427 59.0313 247.214 58.5677 246.88 58.1927L241.745 52.4427C241.328 51.9792 240.766 51.6927 240.276 51.6927Z" fill="#FF671F"/>
</g>
<mask id="mask5_1_1016" style="mask-type:luminance" maskUnits="userSpaceOnUse" x="215" y="16" width="6" height="7">
<path d="M215.62 16.9688H220.094V22.4792H215.62V16.9688Z" fill="white"/>
</mask>
<g mask="url(#mask5_1_1016)">
<path d="M220.078 16.9688V17.9479H218.432V22.4792H217.276V17.9479H215.62V16.9688H220.078Z" fill="white"/>
</g>
<mask id="mask6_1_1016" style="mask-type:luminance" maskUnits="userSpaceOnUse" x="220" y="16" width="7" height="7">
<path d="M220.719 16.9688H226.062V22.4792H220.719V16.9688Z" fill="white"/>
</mask>
<g mask="url(#mask6_1_1016)">
<path d="M224.406 16.9688H226.062V22.4792H224.99V18.7552C224.99 18.6458 224.99 18.4948 224.99 18.3021C224.995 18.1094 224.995 17.9635 224.995 17.8542L223.953 22.4792H222.833L221.797 17.8542C221.797 17.9635 221.797 18.1094 221.802 18.3021C221.802 18.4948 221.807 18.6458 221.807 18.7552V22.4792H220.734V16.9688H222.406L223.411 21.3021L224.406 16.9688Z" fill="white"/>
</g>
<mask id="mask7_1_1016" style="mask-type:luminance" maskUnits="userSpaceOnUse" x="164" y="22" width="29" height="30">
<path d="M164.151 22.4844H192.839V51.1719H164.151V22.4844Z" fill="white"/>
</mask>
<g mask="url(#mask7_1_1016)">
<path d="M188.245 45.0521C188.964 44.4688 189.474 43.6146 189.411 42.7083C189.323 41.3281 188.052 40.3646 186.875 39.6458C185.401 38.7396 183.87 37.9219 182.307 37.1771C180.464 36.1406 178.651 35.2031 176.781 34.0938C176.37 33.849 175.943 33.5937 175.672 33.1979C175.135 32.4062 175.766 31.5521 176.521 31.224C177.375 30.849 178.417 30.7917 179.328 30.7604C180.333 30.724 181.359 30.8542 182.365 30.875C183.344 30.8906 184.333 30.9323 185.302 31.0781C185.854 31.1667 186.646 31.2552 187.057 31.6875C187.521 32.1927 187.672 33.0104 187.286 33.5781C188.115 32.7708 189.036 31.599 189.328 30.4583C189.495 29.8229 189.448 29.0313 189 28.5208C188.901 28.4063 188.786 28.3073 188.667 28.2188C188.667 28.2188 191.604 29.5521 189.927 33.151C190.297 34.3125 190.5 35.5469 190.5 36.8281C190.5 38.349 190.219 39.7969 189.703 41.1354C190.813 43.7552 188.245 45.0521 188.245 45.0521ZM178.495 48.8385C175.677 48.8385 173.089 47.8646 171.042 46.2448C171.432 46.2813 171.828 46.3125 172.214 46.3542C173.38 46.4844 174.552 46.5417 175.724 46.5677C178.193 46.625 180.656 46.526 183.115 46.3333C183.583 46.2969 184.052 46.2604 184.521 46.2135C185.12 46.151 185.729 46.0781 186.318 45.9375C184.219 47.7448 181.484 48.8385 178.495 48.8385ZM169.932 41.9688C169.464 41.4688 169.318 40.6458 169.698 40.0781C168.87 40.8854 167.953 42.0573 167.656 43.1979C167.49 43.8333 167.542 44.6302 167.99 45.1406C168.089 45.2552 168.198 45.3542 168.318 45.4427C168.318 45.4427 165.385 44.1042 167.063 40.5052C166.688 39.349 166.484 38.1146 166.484 36.8281C166.484 35.3646 166.75 33.9583 167.229 32.6615C166.047 29.9948 168.661 28.6771 168.661 28.6771C167.984 29.2552 167.516 30.0781 167.573 30.9531C167.667 32.3281 168.932 33.2969 170.109 34.0156C171.589 34.9219 173.115 35.7396 174.677 36.4844C176.526 37.5208 178.333 38.4583 180.208 39.5677C180.62 39.8125 181.042 40.0677 181.313 40.4635C181.854 41.25 181.224 42.1042 180.469 42.4375C179.609 42.8073 178.568 42.8698 177.656 42.901C176.656 42.9323 175.625 42.8021 174.625 42.7865C173.641 42.7656 172.656 42.7292 171.682 42.5781C171.13 42.4948 170.339 42.4063 169.932 41.9688ZM178.495 24.8229C181.307 24.8229 183.896 25.7917 185.943 27.4167C185.552 27.375 185.161 27.3438 184.771 27.3021C183.609 27.1719 182.432 27.1198 181.26 27.0938C178.797 27.0313 176.328 27.1354 173.87 27.3281C173.401 27.3646 172.932 27.3958 172.469 27.4479C171.865 27.5052 171.255 27.5833 170.667 27.724C172.771 25.9167 175.505 24.8229 178.495 24.8229ZM178.495 22.4844C170.573 22.4844 164.151 28.9063 164.151 36.8281C164.151 44.75 170.573 51.1719 178.495 51.1719C186.417 51.1719 192.839 44.75 192.839 36.8281C192.839 28.9063 186.417 22.4844 178.495 22.4844Z" fill="#002EFF"/>
</g>
<path d="M39.8438 46.875H162.453V48.8646H39.8438V46.875Z" fill="black"/>
<path d="M41.6346 43.9055L41.8637 44.6555L42.5721 44.9472L43.0512 44.8847L43.8012 44.9472L44.1971 44.9055H44.9054L45.6762 44.6764L45.8846 43.968V43.1555L45.9262 42.7389L45.8637 42.2389L45.9054 40.6972L46.1346 40.218L46.5721 39.968L47.9679 40.1555L48.4471 40.5514L48.7387 41.0305L48.9262 41.468L49.4262 42.1764L49.8846 43.0514L50.1346 43.4055L50.3429 43.8847L50.5929 44.2805L51.1137 44.718L51.9262 44.9264L53.8221 44.9055L54.2804 44.9472L55.0721 44.9264L55.5096 44.718L55.6554 44.1972L55.4054 43.6764L55.1137 43.3222L54.9262 42.8847L54.1137 41.6555L53.8846 41.2389L53.1346 39.9889L52.8429 39.6347L52.8221 39.0514L53.0304 38.5305L53.3637 38.1764L53.6971 37.8847L54.6346 36.218L54.9471 34.8222L54.9054 33.3222L54.8221 32.843L54.4054 31.4889L54.1971 31.0722L53.9471 30.6972L52.5721 29.2597L51.7387 28.8014L50.8429 28.4889L49.4679 28.1764L48.7179 28.1555L48.0096 28.1972H46.5721L46.1137 28.1139H45.6346L45.1971 28.2389H44.7179L44.2387 28.1347L43.7179 28.1139L42.3012 28.2389L41.8637 28.468L41.5929 29.1347L41.6137 34.6139L41.6554 35.093L41.5929 36.0514L41.6137 36.5722V37.0514L41.6554 37.5097L41.6137 37.9472L41.5929 39.8847L41.6346 40.3639V43.9055ZM46.5721 36.1347L46.1137 35.8847L45.9054 35.4889V34.0514L45.8637 33.6555L45.9054 32.6555L46.1346 32.1972L46.6346 32.0097L47.1137 32.0305L48.0721 31.9264L48.7387 32.0722L49.3637 32.1347L49.8012 32.2389L50.4054 32.9889L50.5512 33.3639L50.6346 33.9889L50.5721 34.6972L50.3637 35.1764L50.0929 35.5514L49.8221 35.7597L49.4054 35.9472L48.7179 36.1139L48.2596 36.1347L47.1137 36.093L46.5721 36.1347Z" fill="black"/>
<path d="M67.0364 45.1972L69.1614 44.9889L70.0781 44.6972L72.2031 43.7389L73.8698 42.1347L74.1823 41.6972L75.1198 40.0514L75.2864 39.6139L75.3489 39.1347L75.4948 38.7389L75.5989 38.218L75.7031 36.5514L75.5989 34.9055L75.3906 34.0097L75.2031 33.5097L75.0781 32.968L74.6614 32.1764L74.4948 31.7389L74.1823 31.343L73.8906 31.0514L73.5781 30.6139L72.5573 29.6972L71.3281 28.9264L68.2031 27.9472L67.0781 27.9264L65.4114 28.0097L64.9323 28.1139L64.4531 28.2597L64.0156 28.4472L63.1198 28.6764L61.8906 29.4472L61.5573 29.7389L60.8073 30.2597L60.1614 30.968L59.3489 32.1764L59.1198 32.5722L58.6614 33.8847L58.4739 34.9264L58.3906 37.6972L58.6406 39.1972L59.0156 40.0097L59.1406 40.5097L59.3906 40.9472L60.5156 42.468L61.1823 43.1139L61.4948 43.468L63.1198 44.343L63.5781 44.5305L65.5989 45.1139L67.0364 45.1972ZM66.3698 40.9889L65.8906 40.8222L65.4531 40.7805L64.6406 40.343L63.9114 39.6972L63.6614 39.3639L63.3489 39.0305L62.9114 37.6972L62.7864 36.4889L62.8073 35.7805L62.9739 34.9055L63.1198 34.468L63.4114 34.1347L63.6198 33.718L63.9323 33.343L64.2864 33.0305L64.9739 32.5514L65.4114 32.343L65.9114 32.218L67.0156 32.1347L68.1614 32.1972L69.4323 32.7389L70.1614 33.3014L70.7239 34.1139L70.9114 34.5305L71.0573 35.0097L71.2239 35.4472L71.3073 36.468L71.1614 37.6764L70.9531 38.6555L70.6823 39.0097L70.4739 39.3639L70.1823 39.8014L69.4531 40.3639L69.0156 40.5514L68.6406 40.7805L68.2031 40.8222L67.7448 40.9472L66.3698 40.9889Z" fill="black"/>
<path d="M85.873 45.1972L86.5813 45.1139L87.0397 45.1555L88.8938 44.6764L89.7688 44.218L90.5397 43.6972L91.2063 43.0305L91.7688 42.1764L91.9147 41.6972L92.1438 41.3014L92.373 40.3014L92.4772 39.1555V32.6972L92.4355 32.2389L92.4772 31.718L92.4355 31.343V29.343L92.498 28.8847L92.2063 28.3639L91.6647 28.1972L90.1647 28.2597L89.1647 28.1764L88.6647 28.4264L88.3938 28.9472L88.4355 38.3639L88.2688 39.843L88.1438 40.1972L87.873 40.6764L87.4563 40.968L86.623 41.2805H85.1855L84.6438 41.1555L84.248 40.9264L83.8522 40.6347L83.5605 40.2389L83.4355 39.8014L83.2897 38.4055L83.3522 30.718L83.3105 30.3639L83.3522 29.593L83.3105 28.9055L83.0188 28.3639L82.5188 28.1555H82.0605L81.5813 28.2389L80.5605 28.1347L80.0605 28.1972L79.5605 28.4055L79.248 28.843L79.2897 29.3222V29.9055L79.248 30.2805L79.3105 33.6347L79.248 34.1139L79.2897 34.5514L79.2272 38.4055L79.373 40.3222L79.6022 41.3014L79.9772 42.1139L80.5397 42.968L80.8313 43.3014L81.1855 43.6139L81.9355 44.1139L82.4147 44.343L82.7897 44.5514L83.6855 44.9472L84.623 45.1555H85.1022L85.873 45.1972Z" fill="black"/>
<path d="M98.3668 44.9472L99.5335 44.9055L99.971 44.9264L100.513 44.8847L101.013 44.6972L101.221 44.1972L101.2 43.718L101.221 43.1972L101.179 42.3014L101.221 41.843L101.2 41.3014L101.429 40.8639L101.971 40.6139L102.492 40.5514L102.992 40.6555L105.45 40.468L107.721 39.5514L108.096 39.2597L108.429 38.8847L108.721 38.5722L109.033 38.218L109.533 37.4472L109.95 36.5305L110.013 35.9889L110.158 35.6139L110.221 33.6555L110.117 33.2389L110.054 32.718L109.763 31.843L109.304 31.0305L108.721 30.2389L107.658 29.3014L106.867 28.7805L105.908 28.4889L105.513 28.3222H105.033L104.554 28.1555L103.825 28.1347L103.075 28.1555L102.533 28.2389L101.075 28.1972L100.617 28.1347L99.1168 28.2389L98.596 28.1972L98.1793 28.1347L97.6585 28.2389L97.1585 28.4889L96.9501 28.8847L96.971 31.7597L96.8876 32.718L96.9293 33.1764L96.9085 39.3639L96.9501 39.8222L96.9293 44.2389L97.1793 44.6972L97.9293 44.9264L98.3668 44.9472ZM101.95 36.7805L101.471 36.4889L101.242 36.093L101.179 34.1555L101.221 33.6555V32.6764L101.471 32.218L101.971 31.9889L104.45 32.0514L104.929 32.2597L105.304 32.5305L105.617 32.843L105.867 33.3222L105.929 33.7389L105.992 34.4264L105.929 35.0722L105.763 35.4889L105.554 35.8847L105.242 36.2597L104.867 36.5514L104.471 36.6555L103.742 36.7597L102.513 36.7389L101.95 36.7805Z" fill="black"/>
<path d="M113.7 44.1347L113.908 44.6139L114.367 44.9055L115.158 44.843L115.867 44.9055L119.346 44.8639L119.825 44.9264L122.283 44.8222L122.7 44.7389L124.054 44.3639L124.471 44.1347L125.429 43.3847L126.075 42.4889L126.325 42.0097L126.471 41.5722L126.658 41.1139L126.7 39.1764L126.429 38.3222L126.013 37.343L125.7 36.968L125.304 36.6347L125.075 36.093L125.242 35.6347L125.7 34.6972L125.992 33.843L126.013 33.0305L125.95 32.3014L125.763 31.4264L125.596 30.9264L124.804 29.8222L124.45 29.4889L124.096 29.2597L123.763 28.9889L123.346 28.7597L122.908 28.5305L122.492 28.4055L121.554 28.1764L119.096 28.1139L118.679 28.1972L117.742 28.093L117.304 28.1764L114.408 28.1347L113.888 28.3639L113.658 28.8847V29.4055L113.7 29.8222L113.679 30.3222L113.7 30.7597L113.658 32.1764L113.721 33.1764L113.638 37.7389L113.7 38.4472L113.658 43.6972L113.7 44.1347ZM118.596 34.6764L118.096 34.3847L117.825 33.718L117.804 32.9055L118.096 32.218L118.554 31.9264L121.013 32.093L121.388 32.3014L121.596 32.6764L121.658 33.3847L121.492 34.093L121.138 34.3639L120.429 34.6139L118.596 34.6764ZM118.533 41.0514L118.096 40.8847L117.783 40.4264L117.867 38.9889L118.075 38.5722L118.471 38.2597L118.929 38.343L119.429 38.2805L121.679 38.5097L122.096 38.6764L122.325 39.093L122.471 39.6972L122.346 40.3847L122.096 40.718L121.679 40.9889L120.367 41.1139L118.533 41.0514Z" fill="black"/>
<path d="M136.936 45.1972L137.644 45.1139L138.102 45.1555L139.956 44.6764L140.831 44.218L141.602 43.6972L142.269 43.0305L142.831 42.1764L142.977 41.6972L143.206 41.3014L143.436 40.3014L143.54 39.1555V32.6972L143.498 32.2389L143.54 31.718L143.498 31.343V29.343L143.561 28.8847L143.269 28.3639L142.727 28.1972L141.227 28.2597L140.227 28.1764L139.727 28.4264L139.456 28.9472L139.498 38.3639L139.331 39.843L139.206 40.1972L138.936 40.6764L138.519 40.968L137.686 41.2805H136.248L135.706 41.1555L135.311 40.9264L134.915 40.6347L134.623 40.2389L134.498 39.8014L134.352 38.4055L134.415 30.718L134.373 30.3639L134.415 29.593L134.373 28.9055L134.081 28.3639L133.581 28.1555H133.123L132.644 28.2389L131.623 28.1347L131.123 28.1972L130.623 28.4055L130.311 28.843L130.352 29.3222V29.9055L130.311 30.2805L130.373 33.6347L130.311 34.1139L130.352 34.5514L130.29 38.4055L130.436 40.3222L130.665 41.3014L131.04 42.1139L131.602 42.968L131.894 43.3014L132.248 43.6139L132.998 44.1139L133.477 44.343L133.852 44.5514L134.748 44.9472L135.686 45.1555H136.165L136.936 45.1972Z" fill="black"/>
<path d="M151.7 44.1764L151.888 44.6972L152.388 44.8847L152.867 44.9055L153.304 44.8639L154.033 44.9055L154.7 44.8639L155.179 44.9055L155.658 44.6555L155.846 44.1347L155.929 41.3639L155.867 40.8847V40.4264L155.95 39.9889L155.929 38.593L156.075 37.9055L156.304 37.2805L159.346 32.3014L159.617 31.9472L161.158 29.4264L161.408 28.8222L161.325 28.3014L160.888 28.1972L159.971 28.1764L159.45 28.2389L158.971 28.1555L158.054 28.1764L157.638 28.1555L156.992 28.4055L156.575 28.8014L155.95 29.8222L155.658 30.5514L155.138 31.3222L154.888 31.8222L154.658 32.218L154.242 33.1347L153.929 33.5305H153.679L153.408 33.0722L153.158 32.6972L152.429 31.3639L152.179 30.9472L151.054 28.843L150.554 28.4055L149.992 28.1764L149.492 28.1972L149.096 28.1139L147.867 28.1972L146.763 28.1347L146.283 28.3639L146.221 28.9055L146.45 29.4472L147.492 31.1347L147.742 31.4889L148.721 33.1764L149.304 33.9472L149.492 34.3639L151.325 37.2805L151.575 37.9472L151.7 38.593L151.679 40.4889L151.721 40.968L151.679 42.8014L151.721 43.2597L151.7 44.1764Z" fill="black"/>
</svg>
