<svg xmlns="http://www.w3.org/2000/svg" xmlns:xlink="http://www.w3.org/1999/xlink" width="250" zoomAndPan="magnify" viewBox="0 0 187.5 112.499997" height="150" preserveAspectRatio="xMidYMid meet" version="1.0"><defs><g/><clipPath id="3b19395bfd"><path d="M 0.164062 39.488281 L 33 39.488281 L 33 73.835938 L 0.164062 73.835938 Z M 0.164062 39.488281 " clip-rule="nonzero"/></clipPath><clipPath id="2a4ee2a394"><path d="M 145 52.613281 L 158 52.613281 L 158 69 L 145 69 Z M 145 52.613281 " clip-rule="nonzero"/></clipPath><clipPath id="bf7907e69a"><path d="M 159 52.613281 L 175 52.613281 L 175 69 L 159 69 Z M 159 52.613281 " clip-rule="nonzero"/></clipPath><clipPath id="8ac1717517"><path d="M 178 71 L 186.449219 71 L 186.449219 79.492188 L 178 79.492188 Z M 178 71 " clip-rule="nonzero"/></clipPath><clipPath id="e7b16ebdf8"><path d="M 178 70 L 186.449219 70 L 186.449219 79.492188 L 178 79.492188 Z M 178 70 " clip-rule="nonzero"/></clipPath><clipPath id="3f087eb1c0"><path d="M 161.714844 45.726562 L 165.070312 45.726562 L 165.070312 49.859375 L 161.714844 49.859375 Z M 161.714844 45.726562 " clip-rule="nonzero"/></clipPath><clipPath id="8c331b93e6"><path d="M 165.539062 45.726562 L 169.546875 45.726562 L 169.546875 49.859375 L 165.539062 49.859375 Z M 165.539062 45.726562 " clip-rule="nonzero"/></clipPath><clipPath id="8c65c8b5a7"><path d="M 123.113281 49.863281 L 144.628906 49.863281 L 144.628906 71.378906 L 123.113281 71.378906 Z M 123.113281 49.863281 " clip-rule="nonzero"/></clipPath></defs><g clip-path="url(#3b19395bfd)"><path fill="#0a22ff" d="M 32.984375 39.488281 L 26.574219 45.664062 C 23.871094 43.542969 20.898438 42.382812 16.265625 42.382812 C 7.8125 42.382812 1.636719 48.871094 1.636719 56.785156 L 1.636719 56.863281 C 1.636719 61.148438 3.21875 64.855469 6 67.4375 L 0.167969 74.078125 C 12.484375 62.1875 21.75 52.417969 32.984375 39.488281 Z M 8.042969 56.703125 C 8.042969 51.957031 11.59375 48.019531 16.035156 48.019531 C 18.699219 48.019531 20.4375 48.714844 22.175781 49.949219 C 17.617188 54.351562 14.222656 57.976562 10.054688 62.726562 C 8.78125 61.183594 8.046875 59.140625 8.046875 56.78125 L 8.046875 56.703125 Z M 8.042969 56.703125 " fill-opacity="1" fill-rule="evenodd"/></g><path fill="#0a22ff" d="M 16.304688 59.984375 L 22.289062 59.984375 L 22.289062 63.960938 C 20.707031 65.078125 18.738281 65.65625 16.5 65.65625 C 14.839844 65.65625 13.332031 65.234375 12.058594 64.460938 L 7.851562 68.863281 C 10.167969 70.367188 13.0625 71.21875 16.304688 71.21875 C 21.402344 71.21875 25.339844 69.25 28.195312 66.816406 L 28.195312 54.699219 L 21.324219 54.699219 Z M 16.304688 59.984375 " fill-opacity="1" fill-rule="evenodd"/><g clip-path="url(#2a4ee2a394)"><path fill="#002eff" d="M 155.746094 55.289062 L 148.714844 55.289062 L 148.714844 59.070312 L 155.1875 59.070312 C 155.664062 59.070312 156.019531 59.179688 156.257812 59.390625 C 156.492188 59.605469 156.609375 59.886719 156.609375 60.238281 C 156.609375 60.589844 156.492188 60.875 156.261719 61.09375 C 156.03125 61.316406 155.671875 61.425781 155.1875 61.425781 L 148.714844 61.425781 L 148.714844 65.808594 L 155.988281 65.808594 C 156.476562 65.808594 156.847656 65.921875 157.097656 66.148438 C 157.34375 66.378906 157.46875 66.679688 157.46875 67.058594 C 157.46875 67.421875 157.34375 67.71875 157.097656 67.945312 C 156.847656 68.175781 156.476562 68.289062 155.988281 68.289062 L 147.507812 68.289062 C 146.828125 68.289062 146.339844 68.136719 146.042969 67.835938 C 145.742188 67.535156 145.59375 67.046875 145.59375 66.375 L 145.59375 54.796875 C 145.59375 54.347656 145.660156 53.980469 145.792969 53.695312 C 145.929688 53.414062 146.136719 53.207031 146.421875 53.078125 C 146.703125 52.949219 147.066406 52.882812 147.507812 52.882812 L 155.746094 52.882812 C 156.242188 52.882812 156.613281 52.992188 156.855469 53.214844 C 157.097656 53.433594 157.21875 53.722656 157.21875 54.082031 C 157.21875 54.445312 157.097656 54.738281 156.855469 54.957031 C 156.613281 55.179688 156.242188 55.289062 155.746094 55.289062 Z M 155.746094 55.289062 " fill-opacity="1" fill-rule="nonzero"/></g><g clip-path="url(#bf7907e69a)"><path fill="#002eff" d="M 166.726562 52.621094 C 168.324219 52.621094 169.695312 52.945312 170.839844 53.59375 C 171.988281 54.238281 172.855469 55.160156 173.441406 56.355469 C 174.03125 57.550781 174.324219 58.953125 174.324219 60.5625 C 174.324219 61.753906 174.164062 62.835938 173.839844 63.8125 C 173.519531 64.785156 173.035156 65.628906 172.390625 66.34375 C 171.746094 67.058594 170.957031 67.605469 170.015625 67.984375 C 169.078125 68.359375 168.003906 68.550781 166.789062 68.550781 C 165.585938 68.550781 164.507812 68.355469 163.554688 67.96875 C 162.601562 67.578125 161.804688 67.03125 161.167969 66.324219 C 160.53125 65.613281 160.050781 64.765625 159.722656 63.769531 C 159.398438 62.773438 159.234375 61.699219 159.234375 60.542969 C 159.234375 59.359375 159.40625 58.273438 159.746094 57.285156 C 160.085938 56.296875 160.578125 55.457031 161.222656 54.761719 C 161.867188 54.070312 162.648438 53.539062 163.574219 53.171875 C 164.5 52.804688 165.550781 52.621094 166.726562 52.621094 Z M 171.160156 60.542969 C 171.160156 59.414062 170.980469 58.4375 170.617188 57.609375 C 170.25 56.785156 169.730469 56.160156 169.054688 55.734375 C 168.378906 55.3125 167.601562 55.101562 166.726562 55.101562 C 166.105469 55.101562 165.527344 55.21875 165 55.453125 C 164.46875 55.6875 164.015625 56.027344 163.632812 56.476562 C 163.25 56.925781 162.949219 57.496094 162.730469 58.195312 C 162.507812 58.890625 162.398438 59.675781 162.398438 60.542969 C 162.398438 61.417969 162.507812 62.210938 162.730469 62.917969 C 162.949219 63.625 163.261719 64.210938 163.664062 64.679688 C 164.066406 65.144531 164.53125 65.492188 165.050781 65.722656 C 165.574219 65.953125 166.144531 66.070312 166.769531 66.070312 C 167.566406 66.070312 168.300781 65.871094 168.972656 65.472656 C 169.640625 65.070312 170.171875 64.457031 170.566406 63.621094 C 170.964844 62.789062 171.160156 61.761719 171.160156 60.542969 Z M 171.160156 60.542969 " fill-opacity="1" fill-rule="nonzero"/></g><path fill="#ff671f" d="M 180.214844 71.367188 L 178.902344 72.542969 L 176.890625 70.289062 L 178.203125 69.113281 Z M 180.214844 71.367188 " fill-opacity="1" fill-rule="nonzero"/><path fill="#ff671f" d="M 178.863281 73.238281 L 176.191406 70.25 L 178.242188 68.417969 L 180.914062 71.40625 Z M 177.585938 70.328125 L 178.941406 71.847656 L 179.519531 71.328125 L 178.164062 69.808594 Z M 177.585938 70.328125 " fill-opacity="1" fill-rule="nonzero"/><path fill="#ff671f" d="M 172.128906 72.566406 C 169.558594 72.566406 167.101562 71.46875 165.390625 69.550781 C 163.785156 67.75 162.972656 65.433594 163.109375 63.027344 C 163.246094 60.617188 164.3125 58.40625 166.113281 56.800781 C 167.769531 55.320312 169.902344 54.507812 172.121094 54.507812 C 174.695312 54.507812 177.148438 55.605469 178.863281 57.523438 C 180.46875 59.320312 181.277344 61.636719 181.140625 64.046875 C 181.003906 66.453125 179.9375 68.664062 178.140625 70.273438 C 176.484375 71.75 174.347656 72.566406 172.128906 72.566406 Z M 172.121094 56.148438 C 170.308594 56.148438 168.5625 56.816406 167.207031 58.027344 C 165.734375 59.339844 164.863281 61.148438 164.75 63.121094 C 164.640625 65.089844 165.300781 66.984375 166.617188 68.457031 C 168.015625 70.023438 170.023438 70.921875 172.128906 70.921875 C 173.945312 70.921875 175.691406 70.257812 177.046875 69.046875 C 180.085938 66.332031 180.347656 61.65625 177.636719 58.617188 C 176.234375 57.046875 174.226562 56.148438 172.121094 56.148438 Z M 172.121094 56.148438 " fill-opacity="1" fill-rule="nonzero"/><g clip-path="url(#8ac1717517)"><path fill="#ff671f" d="M 181.675781 72.003906 L 185.527344 76.316406 C 186.199219 77.070312 186.285156 78.09375 185.714844 78.601562 L 185.566406 78.738281 C 184.996094 79.246094 183.988281 79.046875 183.3125 78.292969 L 179.460938 73.980469 C 178.789062 73.222656 178.703125 72.199219 179.273438 71.691406 L 179.425781 71.558594 C 179.992188 71.050781 181 71.25 181.675781 72.003906 Z M 181.675781 72.003906 " fill-opacity="1" fill-rule="nonzero"/></g><g clip-path="url(#e7b16ebdf8)"><path fill="#ff671f" d="M 184.78125 79.511719 C 184.128906 79.511719 183.445312 79.179688 182.945312 78.621094 L 179.09375 74.308594 C 178.699219 73.863281 178.453125 73.320312 178.410156 72.785156 C 178.363281 72.203125 178.558594 71.671875 178.945312 71.324219 L 179.097656 71.191406 C 179.394531 70.925781 179.777344 70.785156 180.207031 70.785156 C 180.859375 70.785156 181.542969 71.117188 182.042969 71.675781 L 185.894531 75.988281 C 186.289062 76.433594 186.535156 76.972656 186.578125 77.511719 C 186.625 78.09375 186.429688 78.625 186.042969 78.972656 L 185.894531 79.105469 C 185.59375 79.371094 185.210938 79.511719 184.78125 79.511719 Z M 180.207031 71.769531 C 180.078125 71.769531 179.898438 71.796875 179.753906 71.925781 L 179.601562 72.058594 C 179.390625 72.25 179.378906 72.542969 179.394531 72.703125 C 179.417969 73.023438 179.578125 73.371094 179.828125 73.652344 L 183.679688 77.964844 C 183.992188 78.3125 184.414062 78.527344 184.78125 78.527344 C 184.910156 78.527344 185.09375 78.5 185.238281 78.371094 L 185.386719 78.234375 C 185.597656 78.046875 185.609375 77.75 185.597656 77.59375 C 185.570312 77.273438 185.410156 76.925781 185.160156 76.644531 L 181.308594 72.332031 C 180.996094 71.984375 180.574219 71.769531 180.207031 71.769531 Z M 180.207031 71.769531 " fill-opacity="1" fill-rule="nonzero"/></g><g clip-path="url(#3f087eb1c0)"><path fill="#ffffff" d="M 165.058594 45.726562 L 165.058594 46.460938 L 163.824219 46.460938 L 163.824219 49.859375 L 162.957031 49.859375 L 162.957031 46.460938 L 161.714844 46.460938 L 161.714844 45.726562 L 165.058594 45.726562 " fill-opacity="1" fill-rule="nonzero"/></g><g clip-path="url(#8c331b93e6)"><path fill="#ffffff" d="M 168.304688 45.726562 L 169.546875 45.726562 L 169.546875 49.859375 L 168.742188 49.859375 L 168.742188 47.066406 C 168.742188 46.984375 168.742188 46.871094 168.742188 46.726562 C 168.746094 46.582031 168.746094 46.472656 168.746094 46.390625 L 167.964844 49.859375 L 167.125 49.859375 L 166.347656 46.390625 C 166.347656 46.472656 166.347656 46.582031 166.351562 46.726562 C 166.351562 46.871094 166.355469 46.984375 166.355469 47.066406 L 166.355469 49.859375 L 165.550781 49.859375 L 165.550781 45.726562 L 166.804688 45.726562 L 167.558594 48.976562 L 168.304688 45.726562 " fill-opacity="1" fill-rule="nonzero"/></g><g clip-path="url(#8c65c8b5a7)"><path fill="#002eff" d="M 141.183594 66.789062 C 141.722656 66.351562 142.105469 65.710938 142.058594 65.03125 C 141.992188 63.996094 141.039062 63.273438 140.15625 62.734375 C 139.050781 62.054688 137.902344 61.441406 136.730469 60.882812 C 135.347656 60.105469 133.988281 59.402344 132.585938 58.570312 C 132.277344 58.386719 131.957031 58.195312 131.753906 57.898438 C 131.351562 57.304688 131.824219 56.664062 132.390625 56.417969 C 133.03125 56.136719 133.8125 56.09375 134.496094 56.070312 C 135.25 56.042969 136.019531 56.140625 136.773438 56.15625 C 137.507812 56.167969 138.25 56.199219 138.976562 56.308594 C 139.390625 56.375 139.984375 56.441406 140.292969 56.765625 C 140.640625 57.144531 140.753906 57.757812 140.464844 58.183594 C 141.085938 57.578125 141.777344 56.699219 141.996094 55.84375 C 142.121094 55.367188 142.085938 54.773438 141.75 54.390625 C 141.675781 54.304688 141.589844 54.230469 141.5 54.164062 C 141.5 54.164062 143.703125 55.164062 142.445312 57.863281 C 142.722656 58.734375 142.875 59.660156 142.875 60.621094 C 142.875 61.761719 142.664062 62.847656 142.277344 63.851562 C 143.109375 65.816406 141.183594 66.789062 141.183594 66.789062 Z M 133.871094 69.628906 C 131.757812 69.628906 129.816406 68.898438 128.28125 67.683594 C 128.574219 67.710938 128.871094 67.734375 129.160156 67.765625 C 130.035156 67.863281 130.914062 67.90625 131.792969 67.925781 C 133.644531 67.96875 135.492188 67.894531 137.335938 67.75 C 137.6875 67.722656 138.039062 67.695312 138.390625 67.660156 C 138.839844 67.613281 139.296875 67.558594 139.738281 67.453125 C 138.164062 68.808594 136.113281 69.628906 133.871094 69.628906 Z M 127.449219 64.476562 C 127.097656 64.101562 126.988281 63.484375 127.273438 63.058594 C 126.652344 63.664062 125.964844 64.542969 125.742188 65.398438 C 125.617188 65.875 125.65625 66.472656 125.992188 66.855469 C 126.066406 66.941406 126.148438 67.015625 126.238281 67.082031 C 126.238281 67.082031 124.039062 66.078125 125.296875 63.378906 C 125.015625 62.511719 124.863281 61.585938 124.863281 60.621094 C 124.863281 59.523438 125.0625 58.46875 125.421875 57.496094 C 124.535156 55.496094 126.496094 54.507812 126.496094 54.507812 C 125.988281 54.941406 125.636719 55.558594 125.679688 56.214844 C 125.75 57.246094 126.699219 57.972656 127.582031 58.511719 C 128.691406 59.191406 129.835938 59.804688 131.007812 60.363281 C 132.394531 61.140625 133.75 61.84375 135.15625 62.675781 C 135.464844 62.859375 135.78125 63.050781 135.984375 63.347656 C 136.390625 63.9375 135.917969 64.578125 135.351562 64.828125 C 134.707031 65.105469 133.925781 65.152344 133.242188 65.175781 C 132.492188 65.199219 131.71875 65.101562 130.96875 65.089844 C 130.230469 65.074219 129.492188 65.046875 128.761719 64.933594 C 128.347656 64.871094 127.753906 64.804688 127.449219 64.476562 Z M 133.871094 51.617188 C 135.980469 51.617188 137.921875 52.34375 139.457031 53.5625 C 139.164062 53.53125 138.871094 53.507812 138.578125 53.476562 C 137.707031 53.378906 136.824219 53.339844 135.945312 53.320312 C 134.097656 53.273438 132.246094 53.351562 130.402344 53.496094 C 130.050781 53.523438 129.699219 53.546875 129.351562 53.585938 C 128.898438 53.628906 128.441406 53.6875 128 53.792969 C 129.578125 52.4375 131.628906 51.617188 133.871094 51.617188 Z M 133.871094 49.863281 C 127.929688 49.863281 123.113281 54.679688 123.113281 60.621094 C 123.113281 66.5625 127.929688 71.378906 133.871094 71.378906 C 139.8125 71.378906 144.628906 66.5625 144.628906 60.621094 C 144.628906 54.679688 139.8125 49.863281 133.871094 49.863281 " fill-opacity="1" fill-rule="nonzero"/></g><path fill="#000000" d="M 29.882812 68.15625 L 121.839844 68.15625 L 121.839844 69.648438 L 29.882812 69.648438 Z M 29.882812 68.15625 " fill-opacity="1" fill-rule="nonzero"/><g fill="#000000" fill-opacity="1"><g transform="translate(29.882166, 66.663527)"><g><path d="M 1.34375 -0.734375 L 1.515625 -0.171875 L 2.046875 0.046875 L 2.40625 0 L 2.96875 0.046875 L 3.265625 0.015625 L 3.796875 0.015625 L 4.375 -0.15625 L 4.53125 -0.6875 L 4.53125 -1.296875 L 4.5625 -1.609375 L 4.515625 -1.984375 L 4.546875 -3.140625 L 4.71875 -3.5 L 5.046875 -3.6875 L 6.09375 -3.546875 L 6.453125 -3.25 L 6.671875 -2.890625 L 6.8125 -2.5625 L 7.1875 -2.03125 L 7.53125 -1.375 L 7.71875 -1.109375 L 7.875 -0.75 L 8.0625 -0.453125 L 8.453125 -0.125 L 9.0625 0.03125 L 10.484375 0.015625 L 10.828125 0.046875 L 11.421875 0.03125 L 11.75 -0.125 L 11.859375 -0.515625 L 11.671875 -0.90625 L 11.453125 -1.171875 L 11.3125 -1.5 L 10.703125 -2.421875 L 10.53125 -2.734375 L 9.96875 -3.671875 L 9.75 -3.9375 L 9.734375 -4.375 L 9.890625 -4.765625 L 10.140625 -5.03125 L 10.390625 -5.25 L 11.09375 -6.5 L 11.328125 -7.546875 L 11.296875 -8.671875 L 11.234375 -9.03125 L 10.921875 -10.046875 L 10.765625 -10.359375 L 10.578125 -10.640625 L 9.546875 -11.71875 L 8.921875 -12.0625 L 8.25 -12.296875 L 7.21875 -12.53125 L 6.65625 -12.546875 L 6.125 -12.515625 L 5.046875 -12.515625 L 4.703125 -12.578125 L 4.34375 -12.578125 L 4.015625 -12.484375 L 3.65625 -12.484375 L 3.296875 -12.5625 L 2.90625 -12.578125 L 1.84375 -12.484375 L 1.515625 -12.3125 L 1.3125 -11.8125 L 1.328125 -7.703125 L 1.359375 -7.34375 L 1.3125 -6.625 L 1.328125 -6.234375 L 1.328125 -5.875 L 1.359375 -5.53125 L 1.328125 -5.203125 L 1.3125 -3.75 L 1.34375 -3.390625 Z M 5.046875 -6.5625 L 4.703125 -6.75 L 4.546875 -7.046875 L 4.546875 -8.125 L 4.515625 -8.421875 L 4.546875 -9.171875 L 4.71875 -9.515625 L 5.09375 -9.65625 L 5.453125 -9.640625 L 6.171875 -9.71875 L 6.671875 -9.609375 L 7.140625 -9.5625 L 7.46875 -9.484375 L 7.921875 -8.921875 L 8.03125 -8.640625 L 8.09375 -8.171875 L 8.046875 -7.640625 L 7.890625 -7.28125 L 7.6875 -7 L 7.484375 -6.84375 L 7.171875 -6.703125 L 6.65625 -6.578125 L 6.3125 -6.5625 L 5.453125 -6.59375 Z M 5.046875 -6.5625 "/></g></g></g><g fill="#000000" fill-opacity="1"><g transform="translate(43.08982, 66.663527)"><g><path d="M 7.1875 0.234375 L 8.78125 0.078125 L 9.46875 -0.140625 L 11.0625 -0.859375 L 12.3125 -2.0625 L 12.546875 -2.390625 L 13.25 -3.625 L 13.375 -3.953125 L 13.421875 -4.3125 L 13.53125 -4.609375 L 13.609375 -5 L 13.6875 -6.25 L 13.609375 -7.484375 L 13.453125 -8.15625 L 13.3125 -8.53125 L 13.21875 -8.9375 L 12.90625 -9.53125 L 12.78125 -9.859375 L 12.546875 -10.15625 L 12.328125 -10.375 L 12.09375 -10.703125 L 11.328125 -11.390625 L 10.40625 -11.96875 L 8.0625 -12.703125 L 7.21875 -12.71875 L 5.96875 -12.65625 L 5.609375 -12.578125 L 5.25 -12.46875 L 4.921875 -12.328125 L 4.25 -12.15625 L 3.328125 -11.578125 L 3.078125 -11.359375 L 2.515625 -10.96875 L 2.03125 -10.4375 L 1.421875 -9.53125 L 1.25 -9.234375 L 0.90625 -8.25 L 0.765625 -7.46875 L 0.703125 -5.390625 L 0.890625 -4.265625 L 1.171875 -3.65625 L 1.265625 -3.28125 L 1.453125 -2.953125 L 2.296875 -1.8125 L 2.796875 -1.328125 L 3.03125 -1.0625 L 4.25 -0.40625 L 4.59375 -0.265625 L 6.109375 0.171875 Z M 6.6875 -2.921875 L 6.328125 -3.046875 L 6 -3.078125 L 5.390625 -3.40625 L 4.84375 -3.890625 L 4.65625 -4.140625 L 4.421875 -4.390625 L 4.09375 -5.390625 L 4 -6.296875 L 4.015625 -6.828125 L 4.140625 -7.484375 L 4.25 -7.8125 L 4.46875 -8.0625 L 4.625 -8.375 L 4.859375 -8.65625 L 5.125 -8.890625 L 5.640625 -9.25 L 5.96875 -9.40625 L 6.34375 -9.5 L 7.171875 -9.5625 L 8.03125 -9.515625 L 8.984375 -9.109375 L 9.53125 -8.6875 L 9.953125 -8.078125 L 10.09375 -7.765625 L 10.203125 -7.40625 L 10.328125 -7.078125 L 10.390625 -6.3125 L 10.28125 -5.40625 L 10.125 -4.671875 L 9.921875 -4.40625 L 9.765625 -4.140625 L 9.546875 -3.8125 L 9 -3.390625 L 8.671875 -3.25 L 8.390625 -3.078125 L 8.0625 -3.046875 L 7.71875 -2.953125 Z M 6.6875 -2.921875 "/></g></g></g><g fill="#000000" fill-opacity="1"><g transform="translate(58.232868, 66.663527)"><g><path d="M 6.171875 0.234375 L 6.703125 0.171875 L 7.046875 0.203125 L 8.4375 -0.15625 L 9.09375 -0.5 L 9.671875 -0.890625 L 10.171875 -1.390625 L 10.59375 -2.03125 L 10.703125 -2.390625 L 10.875 -2.6875 L 11.046875 -3.4375 L 11.125 -4.296875 L 11.125 -9.140625 L 11.09375 -9.484375 L 11.125 -9.875 L 11.09375 -10.15625 L 11.09375 -11.65625 L 11.140625 -12 L 10.921875 -12.390625 L 10.515625 -12.515625 L 9.390625 -12.46875 L 8.640625 -12.53125 L 8.265625 -12.34375 L 8.0625 -11.953125 L 8.09375 -4.890625 L 7.96875 -3.78125 L 7.875 -3.515625 L 7.671875 -3.15625 L 7.359375 -2.9375 L 6.734375 -2.703125 L 5.65625 -2.703125 L 5.25 -2.796875 L 4.953125 -2.96875 L 4.65625 -3.1875 L 4.4375 -3.484375 L 4.34375 -3.8125 L 4.234375 -4.859375 L 4.28125 -10.625 L 4.25 -10.890625 L 4.28125 -11.46875 L 4.25 -11.984375 L 4.03125 -12.390625 L 3.65625 -12.546875 L 3.3125 -12.546875 L 2.953125 -12.484375 L 2.1875 -12.5625 L 1.8125 -12.515625 L 1.4375 -12.359375 L 1.203125 -12.03125 L 1.234375 -11.671875 L 1.234375 -11.234375 L 1.203125 -10.953125 L 1.25 -8.4375 L 1.203125 -8.078125 L 1.234375 -7.75 L 1.1875 -4.859375 L 1.296875 -3.421875 L 1.46875 -2.6875 L 1.75 -2.078125 L 2.171875 -1.4375 L 2.390625 -1.1875 L 2.65625 -0.953125 L 3.21875 -0.578125 L 3.578125 -0.40625 L 3.859375 -0.25 L 4.53125 0.046875 L 5.234375 0.203125 L 5.59375 0.203125 Z M 6.171875 0.234375 "/></g></g></g><g fill="#000000" fill-opacity="1"><g transform="translate(71.368846, 66.663527)"><g><path d="M 2.40625 0.046875 L 3.28125 0.015625 L 3.609375 0.03125 L 4.015625 0 L 4.390625 -0.140625 L 4.546875 -0.515625 L 4.53125 -0.875 L 4.546875 -1.265625 L 4.515625 -1.9375 L 4.546875 -2.28125 L 4.53125 -2.6875 L 4.703125 -3.015625 L 5.109375 -3.203125 L 5.5 -3.25 L 5.875 -3.171875 L 7.71875 -3.3125 L 9.421875 -4 L 9.703125 -4.21875 L 9.953125 -4.5 L 10.171875 -4.734375 L 10.40625 -5 L 10.78125 -5.578125 L 11.09375 -6.265625 L 11.140625 -6.671875 L 11.25 -6.953125 L 11.296875 -8.421875 L 11.21875 -8.734375 L 11.171875 -9.125 L 10.953125 -9.78125 L 10.609375 -10.390625 L 10.171875 -10.984375 L 9.375 -11.6875 L 8.78125 -12.078125 L 8.0625 -12.296875 L 7.765625 -12.421875 L 7.40625 -12.421875 L 7.046875 -12.546875 L 6.5 -12.5625 L 5.9375 -12.546875 L 5.53125 -12.484375 L 4.4375 -12.515625 L 4.09375 -12.5625 L 2.96875 -12.484375 L 2.578125 -12.515625 L 2.265625 -12.5625 L 1.875 -12.484375 L 1.5 -12.296875 L 1.34375 -12 L 1.359375 -9.84375 L 1.296875 -9.125 L 1.328125 -8.78125 L 1.3125 -4.140625 L 1.34375 -3.796875 L 1.328125 -0.484375 L 1.515625 -0.140625 L 2.078125 0.03125 Z M 5.09375 -6.078125 L 4.734375 -6.296875 L 4.5625 -6.59375 L 4.515625 -8.046875 L 4.546875 -8.421875 L 4.546875 -9.15625 L 4.734375 -9.5 L 5.109375 -9.671875 L 6.96875 -9.625 L 7.328125 -9.46875 L 7.609375 -9.265625 L 7.84375 -9.03125 L 8.03125 -8.671875 L 8.078125 -8.359375 L 8.125 -7.84375 L 8.078125 -7.359375 L 7.953125 -7.046875 L 7.796875 -6.75 L 7.5625 -6.46875 L 7.28125 -6.25 L 6.984375 -6.171875 L 6.4375 -6.09375 L 5.515625 -6.109375 Z M 5.09375 -6.078125 "/></g></g></g><g fill="#000000" fill-opacity="1"><g transform="translate(83.931368, 66.663527)"><g><path d="M 1.34375 -0.5625 L 1.5 -0.203125 L 1.84375 0.015625 L 2.4375 -0.03125 L 2.96875 0.015625 L 5.578125 -0.015625 L 5.9375 0.03125 L 7.78125 -0.046875 L 8.09375 -0.109375 L 9.109375 -0.390625 L 9.421875 -0.5625 L 10.140625 -1.125 L 10.625 -1.796875 L 10.8125 -2.15625 L 10.921875 -2.484375 L 11.0625 -2.828125 L 11.09375 -4.28125 L 10.890625 -4.921875 L 10.578125 -5.65625 L 10.34375 -5.9375 L 10.046875 -6.1875 L 9.875 -6.59375 L 10 -6.9375 L 10.34375 -7.640625 L 10.5625 -8.28125 L 10.578125 -8.890625 L 10.53125 -9.4375 L 10.390625 -10.09375 L 10.265625 -10.46875 L 9.671875 -11.296875 L 9.40625 -11.546875 L 9.140625 -11.71875 L 8.890625 -11.921875 L 8.578125 -12.09375 L 8.25 -12.265625 L 7.9375 -12.359375 L 7.234375 -12.53125 L 5.390625 -12.578125 L 5.078125 -12.515625 L 4.375 -12.59375 L 4.046875 -12.53125 L 1.875 -12.5625 L 1.484375 -12.390625 L 1.3125 -12 L 1.3125 -11.609375 L 1.34375 -11.296875 L 1.328125 -10.921875 L 1.34375 -10.59375 L 1.3125 -9.53125 L 1.359375 -8.78125 L 1.296875 -5.359375 L 1.34375 -4.828125 L 1.3125 -0.890625 Z M 5.015625 -7.65625 L 4.640625 -7.875 L 4.4375 -8.375 L 4.421875 -8.984375 L 4.640625 -9.5 L 4.984375 -9.71875 L 6.828125 -9.59375 L 7.109375 -9.4375 L 7.265625 -9.15625 L 7.3125 -8.625 L 7.1875 -8.09375 L 6.921875 -7.890625 L 6.390625 -7.703125 Z M 4.96875 -2.875 L 4.640625 -3 L 4.40625 -3.34375 L 4.46875 -4.421875 L 4.625 -4.734375 L 4.921875 -4.96875 L 5.265625 -4.90625 L 5.640625 -4.953125 L 7.328125 -4.78125 L 7.640625 -4.65625 L 7.8125 -4.34375 L 7.921875 -3.890625 L 7.828125 -3.375 L 7.640625 -3.125 L 7.328125 -2.921875 L 6.34375 -2.828125 Z M 4.96875 -2.875 "/></g></g></g><g fill="#000000" fill-opacity="1"><g transform="translate(96.529737, 66.663527)"><g><path d="M 6.171875 0.234375 L 6.703125 0.171875 L 7.046875 0.203125 L 8.4375 -0.15625 L 9.09375 -0.5 L 9.671875 -0.890625 L 10.171875 -1.390625 L 10.59375 -2.03125 L 10.703125 -2.390625 L 10.875 -2.6875 L 11.046875 -3.4375 L 11.125 -4.296875 L 11.125 -9.140625 L 11.09375 -9.484375 L 11.125 -9.875 L 11.09375 -10.15625 L 11.09375 -11.65625 L 11.140625 -12 L 10.921875 -12.390625 L 10.515625 -12.515625 L 9.390625 -12.46875 L 8.640625 -12.53125 L 8.265625 -12.34375 L 8.0625 -11.953125 L 8.09375 -4.890625 L 7.96875 -3.78125 L 7.875 -3.515625 L 7.671875 -3.15625 L 7.359375 -2.9375 L 6.734375 -2.703125 L 5.65625 -2.703125 L 5.25 -2.796875 L 4.953125 -2.96875 L 4.65625 -3.1875 L 4.4375 -3.484375 L 4.34375 -3.8125 L 4.234375 -4.859375 L 4.28125 -10.625 L 4.25 -10.890625 L 4.28125 -11.46875 L 4.25 -11.984375 L 4.03125 -12.390625 L 3.65625 -12.546875 L 3.3125 -12.546875 L 2.953125 -12.484375 L 2.1875 -12.5625 L 1.8125 -12.515625 L 1.4375 -12.359375 L 1.203125 -12.03125 L 1.234375 -11.671875 L 1.234375 -11.234375 L 1.203125 -10.953125 L 1.25 -8.4375 L 1.203125 -8.078125 L 1.234375 -7.75 L 1.1875 -4.859375 L 1.296875 -3.421875 L 1.46875 -2.6875 L 1.75 -2.078125 L 2.171875 -1.4375 L 2.390625 -1.1875 L 2.65625 -0.953125 L 3.21875 -0.578125 L 3.578125 -0.40625 L 3.859375 -0.25 L 4.53125 0.046875 L 5.234375 0.203125 L 5.59375 0.203125 Z M 6.171875 0.234375 "/></g></g></g><g fill="#000000" fill-opacity="1"><g transform="translate(109.665717, 66.663527)"><g><path d="M 4.109375 -0.53125 L 4.25 -0.140625 L 4.625 0 L 4.984375 0.015625 L 5.3125 -0.015625 L 5.859375 0.015625 L 6.359375 -0.015625 L 6.71875 0.015625 L 7.078125 -0.171875 L 7.21875 -0.5625 L 7.28125 -2.640625 L 7.234375 -3 L 7.234375 -3.34375 L 7.296875 -3.671875 L 7.28125 -4.71875 L 7.390625 -5.234375 L 7.5625 -5.703125 L 9.84375 -9.4375 L 10.046875 -9.703125 L 11.203125 -11.59375 L 11.390625 -12.046875 L 11.328125 -12.4375 L 11 -12.515625 L 10.3125 -12.53125 L 9.921875 -12.484375 L 9.5625 -12.546875 L 8.875 -12.53125 L 8.5625 -12.546875 L 8.078125 -12.359375 L 7.765625 -12.0625 L 7.296875 -11.296875 L 7.078125 -10.75 L 6.6875 -10.171875 L 6.5 -9.796875 L 6.328125 -9.5 L 6.015625 -8.8125 L 5.78125 -8.515625 L 5.59375 -8.515625 L 5.390625 -8.859375 L 5.203125 -9.140625 L 4.65625 -10.140625 L 4.46875 -10.453125 L 3.625 -12.03125 L 3.25 -12.359375 L 2.828125 -12.53125 L 2.453125 -12.515625 L 2.15625 -12.578125 L 1.234375 -12.515625 L 0.40625 -12.5625 L 0.046875 -12.390625 L 0 -11.984375 L 0.171875 -11.578125 L 0.953125 -10.3125 L 1.140625 -10.046875 L 1.875 -8.78125 L 2.3125 -8.203125 L 2.453125 -7.890625 L 3.828125 -5.703125 L 4.015625 -5.203125 L 4.109375 -4.71875 L 4.09375 -3.296875 L 4.125 -2.9375 L 4.09375 -1.5625 L 4.125 -1.21875 Z M 4.109375 -0.53125 "/></g></g></g></svg>