<svg width="24" height="25" viewBox="0 0 24 25" fill="none" xmlns="http://www.w3.org/2000/svg">
<path d="M0 6C0 3.23858 2.23858 1 5 1H19C21.7614 1 24 3.23858 24 6V20C24 22.7614 21.7614 25 19 25H5C2.23858 25 0 22.7614 0 20V6Z" fill="#EBEBEB"/>
<path d="M6.39999 18.8L8.33039 16.8696M8.33039 16.8696C8.66054 17.1997 9.05247 17.4616 9.48383 17.6403C9.91518 17.8189 10.3775 17.9109 10.8444 17.9109C11.3113 17.9109 11.7736 17.8189 12.205 17.6403C12.6363 17.4616 13.0282 17.1997 13.3584 16.8696C13.6885 16.5394 13.9504 16.1475 14.1291 15.7161C14.3078 15.2848 14.3997 14.8225 14.3997 14.3556C14.3997 13.8887 14.3078 13.4264 14.1291 12.995C13.9504 12.5636 13.6885 12.1717 13.3584 11.8416C12.6916 11.1748 11.7873 10.8002 10.8444 10.8002C9.90146 10.8002 8.99715 11.1748 8.33039 11.8416C7.66364 12.5083 7.28906 13.4126 7.28906 14.3556C7.28906 15.2985 7.66364 16.2028 8.33039 16.8696Z" stroke="#4DBDEB" stroke-width="1.5" stroke-linecap="round" stroke-linejoin="round"/>
<path d="M4.80001 14.9504C4.27448 14.045 3.99843 13.0165 4.00001 11.9696C4.00001 8.6728 6.68641 6 10 6H14C17.3136 6 20 8.6728 20 11.9696C20 14.5696 18.3304 16.7808 16 17.6" stroke="#4DBDEB" stroke-width="1.5" stroke-linecap="round" stroke-linejoin="round"/>
</svg>
