<svg width="24" height="25" viewBox="0 0 24 25" fill="none" xmlns="http://www.w3.org/2000/svg">
<path d="M0 6C0 3.23858 2.23858 1 5 1H19C21.7614 1 24 3.23858 24 6V20C24 22.7614 21.7614 25 19 25H5C2.23858 25 0 22.7614 0 20V6Z" fill="#EBEBEB"/>
<path d="M12.6857 7.88571L14.0571 6.51429C14.7429 5.82857 16.1143 5.82857 16.8 6.51429L17.4857 7.2C18.1714 7.88571 18.1714 9.25714 17.4857 9.94286L14.0571 13.3714C13.3714 14.0571 12 14.0571 11.3143 13.3714M11.3143 16.1143L9.94286 17.4857C9.25714 18.1714 7.88571 18.1714 7.2 17.4857L6.51429 16.8C5.82857 16.1143 5.82857 14.7429 6.51429 14.0571L9.94286 10.6286C10.6286 9.94286 12 9.94286 12.6857 10.6286" stroke="#0D6EFD" stroke-width="2" stroke-linecap="round" stroke-linejoin="round"/>
</svg>
