<svg width="24" height="24" viewBox="0 0 24 24" fill="none" xmlns="http://www.w3.org/2000/svg">
<path d="M0 5C0 2.23858 2.23858 0 5 0H19C21.7614 0 24 2.23858 24 5V19C24 21.7614 21.7614 24 19 24H5C2.23858 24 0 21.7614 0 19V5Z" fill="#EBEBEB"/>
<path d="M12.0646 4.51608C12.3594 4.3983 12.6807 4.36281 12.9941 4.41343C13.3075 4.46404 13.6013 4.59885 13.8441 4.80346L13.9544 4.90421L18.0933 9.04307C18.3181 9.2676 18.4776 9.54901 18.5547 9.8572C18.6319 10.1654 18.6238 10.4888 18.5314 10.7927L18.4814 10.9329L16.4094 16.1135C16.2931 16.4035 16.1015 16.6571 15.8542 16.8482C15.607 17.0392 15.3131 17.1606 15.0032 17.1999L10.5533 17.7562C10.4388 17.7697 10.3191 17.786 10.1941 17.8053L9.80507 17.8684L9.60181 17.9052L8.96836 18.0278L8.53468 18.1207L7.88196 18.267L7.04525 18.4668L5.68549 18.8137L5.1195 18.9662C4.97667 19.0054 4.82627 19.0082 4.68208 18.9743C4.53789 18.9403 4.40453 18.8707 4.29423 18.7718C4.18393 18.673 4.10021 18.548 4.05076 18.4083C4.00131 18.2687 3.98771 18.1189 4.01119 17.9726L4.04098 17.8447L4.29944 16.8705L4.53074 15.9523L4.7305 15.1156L4.87682 14.4628L4.96881 14.0283L5.09234 13.3957L5.16244 12.9953L5.21851 12.6203L5.79676 7.99434C5.83318 7.70885 5.93936 7.43673 6.10592 7.20202C6.27248 6.9673 6.49429 6.77723 6.75174 6.6486L6.88404 6.58814L12.0646 4.51608ZM12.7147 6.14307L7.53501 8.21512L7.02334 12.3084L6.98129 12.6554C6.8953 13.2999 6.78276 13.9406 6.64398 14.5759L6.49416 15.2645L9.37489 12.3838C9.27502 12.0112 9.30089 11.616 9.44848 11.2596C9.59608 10.9033 9.85715 10.6055 10.1912 10.4126C10.5253 10.2197 10.9136 10.1425 11.2961 10.1928C11.6785 10.2432 12.0337 10.4183 12.3065 10.6911C12.5792 10.9638 12.7544 11.319 12.8047 11.7014C12.855 12.0839 12.7778 12.4722 12.5849 12.8063C12.392 13.1404 12.0943 13.4014 11.7379 13.549C11.3815 13.6966 10.9863 13.7225 10.6137 13.6226L7.73301 16.5034L8.07646 16.4271L8.76335 16.2826C9.19142 16.1952 9.62176 16.1192 10.0539 16.0548L14.7824 15.4625L16.8545 10.2828L12.7147 6.14307ZM14.785 3.25708C14.9358 3.1061 15.1364 3.01532 15.3494 3.00177C15.5623 2.98822 15.7728 3.05283 15.9415 3.18348L16.0239 3.25708L19.7404 6.97364C19.8992 7.13094 19.9919 7.34299 19.9995 7.56639C20.0071 7.78978 19.929 8.00763 19.7812 8.17533C19.6334 8.34304 19.4271 8.44792 19.2046 8.46851C18.982 8.4891 18.76 8.42384 18.5839 8.28609L18.5016 8.2125L14.785 4.49593C14.6208 4.33163 14.5285 4.10883 14.5285 3.87651C14.5285 3.64419 14.6208 3.42138 14.785 3.25708Z" fill="#FF671F"/>
</svg>
