<svg width="24" height="24" viewBox="0 0 24 24" fill="none" xmlns="http://www.w3.org/2000/svg">
<path d="M0 5C0 2.23858 2.23858 0 5 0H19C21.7614 0 24 2.23858 24 5V19C24 21.7614 21.7614 24 19 24H5C2.23858 24 0 21.7614 0 19V5Z" fill="#EBEBEB"/>
<path fill-rule="evenodd" clip-rule="evenodd" d="M4 7.965C4 6.88 4.88 6 5.965 6H8.772C9.857 6 10.737 6.88 10.737 7.965V8.526C10.737 9.612 9.857 10.491 8.772 10.491H5.965C5.44385 10.491 4.94404 10.284 4.57554 9.91546C4.20703 9.54696 4 9.04715 4 8.526V7.965ZM5.965 7.685C5.92823 7.685 5.89182 7.69224 5.85785 7.70631C5.82388 7.72039 5.79301 7.74101 5.76701 7.76701C5.74101 7.79301 5.72039 7.82388 5.70631 7.85785C5.69224 7.89182 5.685 7.92823 5.685 7.965V8.526C5.68487 8.56285 5.69201 8.59937 5.70603 8.63346C5.72004 8.66755 5.74064 8.69853 5.76666 8.72464C5.79267 8.75074 5.82358 8.77146 5.85762 8.78559C5.89165 8.79972 5.92815 8.807 5.965 8.807H8.772C8.80877 8.807 8.84518 8.79976 8.87915 8.78569C8.91312 8.77161 8.94399 8.75099 8.96999 8.72499C8.99599 8.69899 9.01662 8.66812 9.03069 8.63415C9.04476 8.60018 9.052 8.56377 9.052 8.527V7.965C9.052 7.92823 9.04476 7.89182 9.03069 7.85785C9.01662 7.82388 8.99599 7.79301 8.96999 7.76701C8.94399 7.74101 8.91312 7.72039 8.87915 7.70631C8.84518 7.69224 8.80877 7.685 8.772 7.685H5.965ZM12.14 8.246C12.14 7.781 12.517 7.404 12.982 7.404H19.158C19.3813 7.404 19.5955 7.49271 19.7534 7.65062C19.9113 7.80852 20 8.02269 20 8.246C20 8.46931 19.9113 8.68348 19.7534 8.84138C19.5955 8.99929 19.3813 9.088 19.158 9.088H12.982C12.8714 9.08826 12.7617 9.06666 12.6595 9.02444C12.5572 8.98222 12.4643 8.92021 12.386 8.84197C12.3078 8.76373 12.2458 8.67081 12.2036 8.56853C12.1613 8.46626 12.1397 8.35665 12.14 8.246ZM4.28 13.298C4.28 12.833 4.658 12.456 5.123 12.456H15.79C15.9006 12.456 16.0101 12.4778 16.1122 12.5201C16.2144 12.5624 16.3072 12.6244 16.3854 12.7026C16.4636 12.7808 16.5256 12.8736 16.5679 12.9758C16.6102 13.0779 16.632 13.1874 16.632 13.298C16.632 13.4086 16.6102 13.5181 16.5679 13.6202C16.5256 13.7224 16.4636 13.8152 16.3854 13.8934C16.3072 13.9716 16.2144 14.0336 16.1122 14.0759C16.0101 14.1182 15.9006 14.14 15.79 14.14H5.123C5.01235 14.1403 4.90274 14.1187 4.80047 14.0764C4.69819 14.0342 4.60527 13.9722 4.52703 13.894C4.44879 13.8157 4.38678 13.7228 4.34456 13.6205C4.30234 13.5183 4.27974 13.4086 4.28 13.298ZM4.28 18.35C4.28 17.886 4.658 17.509 5.123 17.509H18.597C18.7076 17.509 18.8171 17.5308 18.9192 17.5731C19.0214 17.6154 19.1142 17.6774 19.1924 17.7556C19.2706 17.8338 19.3326 17.9266 19.3749 18.0288C19.4172 18.1309 19.439 18.2404 19.439 18.351C19.439 18.4616 19.4172 18.5711 19.3749 18.6732C19.3326 18.7754 19.2706 18.8682 19.1924 18.9464C19.1142 19.0246 19.0214 19.0866 18.9192 19.1289C18.8171 19.1712 18.7076 19.193 18.597 19.193H5.123C5.01235 19.1933 4.90274 19.1717 4.80047 19.1294C4.69819 19.0872 4.60527 19.0252 4.52703 18.947C4.44879 18.8687 4.38678 18.7758 4.34456 18.6735C4.30234 18.5713 4.28074 18.4616 4.281 18.351" fill="#F55CD9"/>
<path d="M18.877 14.14C18.9875 14.14 19.097 14.1182 19.1992 14.0759C19.3013 14.0336 19.3942 13.9716 19.4724 13.8934C19.5505 13.8152 19.6126 13.7224 19.6549 13.6202C19.6972 13.5181 19.719 13.4086 19.719 13.298C19.719 13.1874 19.6972 13.0779 19.6549 12.9758C19.6126 12.8736 19.5505 12.7808 19.4724 12.7026C19.3942 12.6244 19.3013 12.5624 19.1992 12.5201C19.097 12.4778 18.9875 12.456 18.877 12.456C18.6537 12.456 18.4395 12.5447 18.2816 12.7026C18.1237 12.8605 18.035 13.0747 18.035 13.298C18.035 13.5213 18.1237 13.7355 18.2816 13.8934C18.4395 14.0513 18.6537 14.14 18.877 14.14Z" fill="#615656"/>
</svg>
